<svg width="359" height="1184" viewBox="0 0 359 1184" fill="none" xmlns="http://www.w3.org/2000/svg">
<path fill-rule="evenodd" clip-rule="evenodd" d="M340.604 31.5738C379.774 35.937 422.532 27.5004 455.183 44.6218C488.191 61.9301 503.839 92.5922 513.599 122.287C522.841 150.408 520.898 179.641 508.571 207.06C496.41 234.109 469.023 253.287 444.884 275.128C411.495 305.339 391.578 352.401 340.604 359.037C289.898 365.639 238.394 337.233 206.906 306.112C178.647 278.183 191.314 239.113 183.979 204.24C178.113 176.352 166.034 150.647 168.273 122.452C171.224 85.2995 158.87 37.1976 198.922 16.0764C239.19 -5.15874 292.21 26.1831 340.604 31.5738Z" fill="#8633B0"/>
<path fill-rule="evenodd" clip-rule="evenodd" d="M237.905 248.001C230.742 229.285 233.206 208.55 233.317 187.522C233.463 159.865 220.543 132.021 238.655 105.777C257.712 78.1634 294.107 52.3508 327.252 51.4103C360.624 50.4635 368.751 87.5714 394.834 101.346C414.094 111.518 442.823 106.81 458.479 120.712C477.032 137.187 493.549 158.873 489.092 185.045C484.569 211.607 456.547 233.071 435.492 255.689C412.8 280.068 394.219 312.408 361.918 321.666C329.603 330.928 300.864 315.454 276.815 301.169C256.515 289.11 245.973 269.079 237.905 248.001Z" fill="#EB478B"/>
<path fill-rule="evenodd" clip-rule="evenodd" d="M37.936 57.0269C66.1176 57.7269 93.285 69.8131 112.27 87.618C129.373 103.658 130.268 126.756 135.014 148.071C139.105 166.448 142.256 184.428 137.907 202.762C133.068 223.16 125.232 242.983 108.844 258.384C89.5584 276.507 66.368 299.872 37.936 296.71C9.08244 293.501 1.5118 260.013 -20.7172 243.975C-40.3947 229.778 -70.5103 227.633 -83.8749 208.824C-98.7769 187.851 -104.48 161.278 -96.1628 137.795C-87.7734 114.11 -63.2816 98.1051 -39.6066 83.8455C-16.2447 69.7745 9.36281 56.3171 37.936 57.0269Z" fill="white"/>
<path fill-rule="evenodd" clip-rule="evenodd" d="M-85.3346 1183.93C-158.137 1182.12 -228.32 1150.9 -277.364 1104.9C-321.548 1063.47 -323.859 1003.8 -336.118 948.734C-346.689 901.259 -354.829 854.811 -343.593 807.448C-331.092 754.753 -310.85 703.545 -268.514 663.759C-218.693 616.939 -158.784 556.58 -85.3345 564.749C-10.7962 573.038 8.76125 659.549 66.1861 700.981C117.02 737.657 194.818 743.199 229.343 791.789C267.84 845.968 282.574 914.616 261.087 975.279C239.415 1036.46 176.144 1077.81 114.984 1114.65C54.6321 1151 -11.5206 1185.76 -85.3346 1183.93Z" fill="#4754EB"/>
<path fill-rule="evenodd" clip-rule="evenodd" d="M-54.2704 1115.85C-94.4687 1115.05 -127.963 1091.68 -158.682 1069.55C-187.37 1048.89 -209.524 1023.6 -223.557 993.896C-238.498 962.268 -251.926 928.031 -241.033 895.223C-229.946 861.83 -198.826 836.267 -164.87 817.143C-132.058 798.663 -93.3585 793.678 -54.2704 790.037C-10.1868 785.931 40.0872 771.876 75.3926 794.763C110.666 817.63 108.06 862.703 115.326 899.981C121.48 931.558 125.017 963.016 114.157 993.658C103.115 1024.82 82.8026 1052.68 53.7333 1073.77C22.8289 1096.19 -13.7098 1116.65 -54.2704 1115.85Z" fill="#8633B0"/>
</svg>
