<svg width="218" height="420" viewBox="0 0 218 420" fill="none" xmlns="http://www.w3.org/2000/svg">
<path fill-rule="evenodd" clip-rule="evenodd" d="M-6.15382 31.5501C44.1072 23.5804 98.2828 -17.2438 140.954 8.30235C183.153 33.5661 161.16 95.2359 174.494 139.7C186.907 181.095 226.787 217.553 216.245 259.379C205.505 301.987 158.372 325.953 120.742 352.956C81.5011 381.115 42.8602 427.492 -6.15382 418.971C-56.3666 410.242 -68.9846 349.671 -102.232 314.192C-125.51 289.352 -155.607 271.73 -171.567 242.458C-189.827 208.969 -209.082 172.313 -199.415 135.954C-189.482 98.5972 -156.538 69.2952 -120.324 49.7319C-86.2356 31.3163 -45.1703 37.7367 -6.15382 31.5501Z" fill="#4754EB"/>
<path fill-rule="evenodd" clip-rule="evenodd" d="M-38.3564 158.013C-15.6082 146.196 7.51502 130.647 32.8928 134.492C57.8904 138.279 73.404 161.799 92.9452 177.906C113.681 194.998 143.397 205.557 150.544 231.468C157.759 257.626 142.845 284.596 128.747 307.708C116.057 328.513 95.3173 340.999 75.2857 354.847C53.1786 370.129 32.789 396.531 6.19402 392.428C-20.4516 388.317 -31.0229 355.989 -48.8503 335.695C-64.0855 318.353 -81.7604 303.839 -90.427 282.442C-100.532 257.494 -112.339 229.329 -101.969 204.55C-91.5604 179.676 -62.2551 170.428 -38.3564 158.013Z" fill="#8633B0"/>
</svg>
