<svg width="751" height="1051" viewBox="0 0 751 1051" fill="none" xmlns="http://www.w3.org/2000/svg">
<path fill-rule="evenodd" clip-rule="evenodd" d="M244.05 426.264C310.398 442.981 329.702 527.755 383.714 569.758C434.801 609.486 528.03 601.674 548.54 663.054C569.017 724.336 503.691 779.569 472.782 836.309C448.322 881.211 424.688 924.265 387.266 959.109C344.943 998.516 301.388 1041.77 244.05 1049.28C183.044 1057.28 125.119 1029.29 70.6872 1000.6C7.6388 967.375 -68.45 938.402 -93.1742 871.56C-118.068 804.258 -76.89 733.145 -53.3112 665.37C-30.2788 599.167 -12.831 527.533 41.7951 483.609C97.7758 438.595 174.393 408.714 244.05 426.264Z" fill="#4754EB"/>
<path fill-rule="evenodd" clip-rule="evenodd" d="M150.118 588.223C192.925 592.574 241.124 593.835 270.453 625.321C300.273 657.333 294.889 706.388 300.599 749.767C306.894 797.586 329.078 848.816 305.407 890.839C281.467 933.338 229.404 953.089 181.355 961.456C138.637 968.894 99.3655 945.16 57.4634 934.015C15.4568 922.841 -37.0559 930.31 -63.9951 896.194C-90.9157 862.101 -70.0366 812.712 -72.5681 769.342C-75.1215 725.597 -103.875 677.245 -78.8758 641.257C-53.8341 605.209 0.746221 612.158 43.5023 602.256C79.2995 593.965 113.563 584.508 150.118 588.223Z" fill="#8633B0"/>
<path fill-rule="evenodd" clip-rule="evenodd" d="M666.114 184.431C667.139 252.845 590.25 293.433 563.658 356.475C538.505 416.104 570.181 504.134 516.201 539.832C462.307 575.472 392.048 526.667 329.242 511.497C279.539 499.491 231.835 487.806 188.493 460.678C139.475 429.996 86.4241 399.119 64.3248 345.68C40.8115 288.822 52.8554 225.627 66.4764 165.625C82.2536 96.1252 90.5462 15.1303 148.712 -26.0515C207.277 -67.5165 286.625 -46.1467 358.193 -40.9125C428.101 -35.7997 501.81 -37.4866 558.376 3.90966C616.345 46.3325 665.038 112.606 666.114 184.431Z" fill="white"/>
</svg>
