<svg width="359" height="786" viewBox="0 0 359 786" fill="none" xmlns="http://www.w3.org/2000/svg">
<path fill-rule="evenodd" clip-rule="evenodd" d="M292.601 750.49C244.458 761.603 188.641 805.516 150.102 775.921C110.839 745.77 148.416 683.368 143.064 635.656C139.242 601.593 119.608 571.25 123.318 537.176C127.769 496.286 135.141 452.646 166.112 423.958C199.039 393.458 246.682 382.487 292.601 380.368C340.287 378.168 393.28 381.051 428.338 411.859C462.398 441.791 455.629 492.764 468.659 535.084C481.157 575.674 519.281 615.093 503.036 654.466C486.768 693.895 432.529 701.674 392.364 720.002C360.084 734.732 327.397 742.459 292.601 750.49Z" fill="#4754EB"/>
<path fill-rule="evenodd" clip-rule="evenodd" d="M172.644 627.068C153.672 608.194 162.726 577.244 161.188 550.986C159.82 527.65 154.45 504.176 164.175 482.536C174.353 459.886 193.331 441.858 215.779 429.509C239.087 416.687 266.056 407.016 292.159 412.129C317.692 417.13 332.21 440.612 352.284 456.245C375.31 474.177 412.857 482.344 418.251 510.323C423.631 538.23 390.348 558.748 376.994 584.42C363.296 610.754 366.969 649.765 339.113 662.466C311.147 675.217 282.024 647.758 252.054 641.386C225.115 635.657 191.629 645.956 172.644 627.068Z" fill="#8633B0"/>
<path fill-rule="evenodd" clip-rule="evenodd" d="M30.1879 20.767C65.8589 24.7423 104.798 17.0557 134.533 32.6552C164.593 48.425 178.843 76.3616 187.731 103.417C196.148 129.038 194.379 155.673 183.153 180.655C172.078 205.3 147.137 222.772 125.154 242.672C94.7469 270.197 76.6089 313.076 30.1879 319.123C-15.9896 325.138 -62.8932 299.257 -91.5692 270.902C-117.304 245.456 -105.768 209.858 -112.448 178.086C-117.79 152.677 -128.79 129.256 -126.751 103.567C-124.064 69.7171 -135.314 25.8909 -98.8399 6.64718C-62.1685 -12.7004 -13.8839 15.8555 30.1879 20.767Z" fill="white"/>
</svg>
