<svg width="359" height="1451" viewBox="0 0 359 1451" fill="none" xmlns="http://www.w3.org/2000/svg">
<path fill-rule="evenodd" clip-rule="evenodd" d="M504.492 1136.09C497.28 1170 472.452 1195.12 450.48 1221.89C430.018 1246.81 411.34 1274.35 381.357 1286.09C350.325 1298.24 316.738 1292.59 283.877 1287.12C245.072 1280.65 194.958 1285.21 174.333 1251.6C153.489 1217.63 190.732 1175.98 191.2 1136.09C191.658 1096.99 152.514 1052.94 177.018 1022.54C201.891 991.672 253.896 1020.69 292.198 1010.76C326.64 1001.83 351.657 966.622 387.202 968.042C427.449 969.649 470.566 985.701 493.671 1018.8C516.681 1051.77 512.863 1096.73 504.492 1136.09Z" fill="#8633B0"/>
<path fill-rule="evenodd" clip-rule="evenodd" d="M402.635 1124.85C410 1143.4 425.537 1159.29 424.017 1179.19C422.481 1199.3 408.997 1216.22 394.583 1230.25C380.933 1243.54 363.84 1252.31 345.167 1255.95C326.747 1259.54 308.972 1253.89 290.499 1250.54C264.948 1245.89 233.212 1252.68 216.632 1232.6C200.139 1212.63 203.331 1180.79 213.095 1156.8C221.858 1135.27 247.233 1127.94 265.198 1113.26C279.564 1101.53 291.13 1087.79 307.708 1079.49C329.552 1068.56 353.77 1047.33 375.832 1057.88C398.014 1068.47 393.535 1101.94 402.635 1124.85Z" fill="#EB478B"/>
<path fill-rule="evenodd" clip-rule="evenodd" d="M336.09 7.00785C370.002 14.2202 395.124 39.0482 421.889 61.0202C446.815 81.4822 474.349 100.16 486.087 130.143C498.236 161.175 492.59 194.762 487.115 227.623C480.651 266.428 485.207 316.542 451.598 337.167C417.631 358.011 375.977 320.768 336.09 320.3C296.989 319.842 252.945 358.986 222.538 334.482C191.672 309.609 220.691 257.604 210.76 219.302C201.83 184.86 166.622 159.843 168.042 124.298C169.649 84.0513 185.701 40.9338 218.804 17.829C251.771 -5.18053 296.729 -1.36329 336.09 7.00785Z" fill="#4754EB"/>
<path fill-rule="evenodd" clip-rule="evenodd" d="M324.853 108.865C343.395 101.5 359.293 85.9629 379.187 87.4826C399.298 89.0189 416.221 102.503 430.255 116.917C443.544 130.567 452.315 147.661 455.953 166.333C459.543 184.753 453.892 202.528 450.536 221.001C445.895 246.552 452.682 278.288 432.603 294.868C412.63 311.361 380.79 308.169 356.798 298.405C335.266 289.643 327.943 264.267 313.264 246.302C301.526 231.936 287.792 220.37 279.493 203.792C268.556 181.948 247.333 157.73 257.876 135.668C268.475 113.487 301.944 117.965 324.853 108.865Z" fill="#8633B0"/>
<path fill-rule="evenodd" clip-rule="evenodd" d="M29.1879 1151.77C64.8589 1155.74 103.798 1148.06 133.533 1163.66C163.593 1179.43 177.843 1207.36 186.731 1234.42C195.148 1260.04 193.379 1286.67 182.153 1311.65C171.078 1336.3 146.137 1353.77 124.154 1373.67C93.7469 1401.2 75.6089 1444.08 29.1879 1450.12C-16.9896 1456.14 -63.8932 1430.26 -92.5692 1401.9C-118.304 1376.46 -106.768 1340.86 -113.448 1309.09C-118.79 1283.68 -129.79 1260.26 -127.751 1234.57C-125.064 1200.72 -136.314 1156.89 -99.8399 1137.65C-63.1685 1118.3 -14.8839 1146.86 29.1879 1151.77Z" fill="white"/>
</svg>
